<?xml version="1.0" standalone="no"?>
<!DOCTYPE svg PUBLIC "-//W3C//DTD SVG 20010904//EN"
 "http://www.w3.org/TR/2001/REC-SVG-20010904/DTD/svg10.dtd">
<svg version="1.0" xmlns="http://www.w3.org/2000/svg"
 width="417.000000pt" height="417.000000pt" viewBox="0 0 417.000000 417.000000"
 preserveAspectRatio="xMidYMid meet">
<metadata>
Created by potrace 1.14, written by Peter Selinger 2001-2017
</metadata>
<g transform="translate(0.000000,417.000000) scale(0.100000,-0.100000)"
fill="#000000" stroke="none">
<path d="M1890 4085 c-197 -33 -359 -94 -520 -198 -90 -58 -102 -68 -215 -182
-99 -98 -178 -206 -242 -330 -60 -116 -106 -271 -129 -435 -9 -61 -9 -1630 0
-1701 4 -31 9 -67 12 -80 2 -13 7 -39 10 -58 3 -19 19 -76 35 -125 98 -301
311 -563 588 -725 29 -18 59 -30 65 -28 14 6 100 146 145 238 68 138 58 216
-49 378 -100 151 -112 194 -115 413 -4 315 34 435 127 399 36 -13 48 -40 54
-114 13 -183 28 -228 109 -338 24 -33 48 -74 54 -92 15 -44 20 -123 11 -164
-13 -54 4 -30 63 89 95 193 135 316 144 439 4 58 1 85 -11 110 -21 44 -41 56
-117 68 -34 6 -71 18 -82 28 -39 35 -85 173 -91 275 -7 109 16 193 83 300 29
47 41 58 62 58 43 0 52 -22 55 -124 2 -76 6 -102 27 -142 14 -27 34 -57 46
-68 l20 -18 -4 143 c-2 79 -8 159 -14 177 -5 18 -10 36 -10 40 -6 60 -14 71
-61 87 -75 25 -127 79 -198 204 -48 83 -77 123 -121 161 -79 68 -115 136 -109
202 6 61 35 93 99 112 94 28 142 -11 266 -214 46 -74 84 -139 86 -144 5 -16
46 5 53 27 15 44 5 142 -21 222 -38 114 -39 258 -2 361 58 161 173 342 209
329 63 -24 84 -292 38 -495 -12 -52 -23 -106 -26 -120 -3 -14 -17 -40 -32 -58
-87 -109 -101 -152 -107 -342 -3 -67 -7 -125 -10 -130 -3 -4 -1 -20 5 -34 15
-40 45 -33 72 17 16 29 37 49 68 65 117 59 168 106 283 262 40 55 75 64 110
26 17 -18 24 -39 26 -75 3 -65 -18 -107 -72 -148 -23 -18 -69 -58 -102 -89
-115 -107 -223 -173 -309 -189 -55 -11 -69 -34 -67 -112 1 -38 3 -77 5 -88 2
-11 7 -68 11 -125 3 -58 8 -114 10 -125 2 -11 4 -38 4 -61 1 -22 8 -49 16 -60
15 -19 15 -18 35 6 11 14 34 42 50 62 34 42 109 88 221 137 77 33 121 70 170
141 13 19 34 46 46 60 13 14 23 28 23 33 0 4 15 15 34 24 29 14 39 14 66 3 61
-25 68 -74 25 -167 -62 -133 -118 -200 -260 -308 -43 -33 -83 -65 -89 -70 -71
-68 -201 -146 -289 -175 -45 -14 -51 -25 -67 -120 -16 -97 -64 -246 -143 -442
-62 -153 -66 -178 -31 -178 24 0 103 81 110 113 20 95 94 183 236 283 44 30
104 78 134 105 59 53 92 61 132 33 51 -35 64 -114 28 -169 -20 -30 -145 -150
-192 -183 -59 -43 -111 -108 -134 -170 -62 -165 -128 -218 -283 -227 -129 -8
-176 -36 -252 -151 -33 -50 -68 -102 -78 -115 -10 -13 -31 -44 -47 -69 l-30
-45 47 -22 c51 -23 195 -67 253 -77 141 -24 364 -25 466 -2 12 2 37 7 56 10
62 10 219 65 301 107 292 147 507 382 642 700 22 54 63 214 74 294 11 82 9
1741 -3 1795 -51 236 -115 390 -225 545 -59 82 -71 96 -163 186 -180 177 -403
294 -660 345 -104 20 -338 25 -438 9z"/>
</g>
</svg>
